<svg width="139" height="29" viewBox="0 0 139 29" fill="none" xmlns="http://www.w3.org/2000/svg">
<path d="M8.50199 12.7155L13.9013 7.27955L19.3029 12.7199L22.4428 9.5552L13.9013 0.950195L5.35986 9.55299L8.50199 12.7155Z" fill="#0098EA"/>
<path d="M-0.00109863 14.9507L3.13988 11.7872L6.28085 14.9507L3.13988 18.1142L-0.00109863 14.9507Z" fill="#0098EA"/>
<path d="M8.50198 17.1848L13.9013 22.6229L19.3029 17.1826L22.445 20.3429L22.4428 20.3451L13.9013 28.9501L5.35986 20.3495L5.35547 20.3451L8.50198 17.1848Z" fill="#0098EA"/>
<path d="M21.5165 14.9517L24.6575 11.7881L27.7985 14.9517L24.6575 18.1152L21.5165 14.9517Z" fill="#0098EA"/>
<path d="M17.0874 14.9489L13.9014 11.7378L11.5453 14.1107L11.2731 14.3828L10.7153 14.9445L10.7109 14.9489L10.7153 14.9555L13.9014 18.1622L17.0874 14.9511L17.0896 14.9489H17.0874Z" fill="#0098EA"/>
<path d="M32.6992 7.73535H39.5324C41.2275 7.73535 42.5098 8.17765 43.3794 9.06226C43.707 9.38903 43.9652 9.77943 44.1385 10.2098C44.3117 10.6401 44.3963 11.1014 44.3872 11.5657V11.6077C44.3931 11.9881 44.3405 12.367 44.2313 12.7312C44.134 13.0446 43.9928 13.3425 43.8119 13.6158C43.6433 13.8734 43.4393 14.1058 43.2059 14.3058C42.9779 14.5034 42.7282 14.6741 42.4615 14.8144C43.2304 15.0841 43.9218 15.5398 44.475 16.1413C44.964 16.7016 45.2084 17.4756 45.2084 18.4634V18.5054C45.2223 19.1224 45.089 19.7336 44.8198 20.2879C44.5589 20.7986 44.1764 21.2363 43.7065 21.5617C43.1753 21.9204 42.5839 22.179 41.9609 22.3247C41.2208 22.5015 40.4621 22.5869 39.7015 22.579H32.6992V7.73535ZM38.8473 13.7374C39.4385 13.7662 40.0269 13.6381 40.5534 13.3659C40.7588 13.2451 40.9265 13.0687 41.0374 12.8569C41.1484 12.6451 41.1983 12.4062 41.1814 12.1672V12.1252C41.1923 11.9051 41.1479 11.6857 41.0523 11.4874C40.9568 11.2891 40.8131 11.1183 40.6347 10.9907C40.2702 10.7297 39.7439 10.5993 39.0559 10.5993H35.8589V13.7374H38.8473ZM39.7103 19.7196C40.2993 19.7528 40.8855 19.6171 41.401 19.3281C41.6018 19.1982 41.7643 19.0164 41.8717 18.8017C41.9791 18.587 42.0273 18.3472 42.0114 18.1074V18.0653C42.0193 17.8374 41.9716 17.6109 41.8725 17.4058C41.7733 17.2007 41.6258 17.0232 41.4427 16.8888C41.065 16.5939 40.4546 16.4465 39.6115 16.4465H35.8589V19.7196H39.7103Z" fill="#0098EA"/>
<path d="M49.2794 7.73535H52.5225V22.5835H49.2794V7.73535Z" fill="#0098EA"/>
<path d="M57.43 7.73535H60.4206L67.3328 16.8733V7.73535H70.5343V22.5835H67.7742L60.6358 13.1447V22.5835H57.43V7.73535Z" fill="#0098EA"/>
<path d="M80.3537 7.62891H83.3399L89.6571 22.5832H86.2712L84.923 19.2526H78.6893L77.3411 22.5832H74.0343L80.3537 7.62891ZM83.7659 16.3688L81.8029 11.5521L79.8487 16.3688H83.7659Z" fill="#0098EA"/>
<path d="M93.1637 7.73535H96.1543L103.062 16.8733V7.73535H106.264V22.5835H103.504L96.3651 13.1447V22.5835H93.1637V7.73535Z" fill="#0098EA"/>
<path d="M117.936 22.8442C116.903 22.8531 115.878 22.6515 114.924 22.2515C114.025 21.8779 113.21 21.327 112.526 20.6311C111.843 19.9353 111.304 19.1087 110.943 18.2C110.561 17.2495 110.368 16.2331 110.374 15.2078V15.1658C110.357 13.145 111.129 11.1984 112.524 9.7454C113.21 9.03567 114.031 8.47299 114.939 8.09119C115.926 7.67932 116.986 7.47391 118.055 7.48744C118.687 7.48269 119.318 7.53972 119.939 7.65773C120.47 7.75894 120.99 7.91532 121.489 8.12436C121.942 8.31646 122.373 8.55824 122.773 8.84531C123.164 9.1253 123.532 9.43746 123.871 9.77857L121.809 12.1759C121.283 11.6863 120.692 11.2718 120.053 10.944C119.425 10.6419 118.737 10.4905 118.042 10.5017C117.463 10.4955 116.889 10.6134 116.359 10.8475C115.829 11.0816 115.355 11.4266 114.968 11.8596C114.583 12.2915 114.283 12.7917 114.08 13.3347C113.869 13.9085 113.762 14.5162 113.766 15.1282V15.1703C113.764 15.7814 113.871 16.3881 114.08 16.9616C114.28 17.5065 114.578 18.0096 114.959 18.4455C115.343 18.8839 115.816 19.2339 116.347 19.472C116.877 19.7101 117.452 19.8307 118.033 19.8255C118.772 19.849 119.506 19.6887 120.169 19.3589C120.801 19.0122 121.385 18.584 121.906 18.085L123.97 20.186C123.606 20.5844 123.211 20.954 122.791 21.2917C122.378 21.6207 121.929 21.9019 121.454 22.1299C120.947 22.3701 120.413 22.5476 119.864 22.6584C119.229 22.7866 118.583 22.8488 117.936 22.8442Z" fill="#0098EA"/>
<path d="M127.797 7.73535H138.892V10.6413H130.988V13.6534H137.948V16.5593H130.999V19.6775H139.002V22.5835H127.804L127.797 7.73535Z" fill="#0098EA"/>
</svg>
