<svg width="35" height="24" viewBox="0 0 35 24" fill="none" xmlns="http://www.w3.org/2000/svg">
<path d="M34.0057 0.62751C33.8018 0.428592 33.5597 0.270778 33.2932 0.163101C33.0267 0.0554249 32.7409 0 32.4524 0C32.1638 0 31.8781 0.0554249 31.6116 0.163101C31.3451 0.270778 31.103 0.428592 30.8991 0.62751L12.2159 18.8449L4.41654 11.2489C4.00458 10.8477 3.44586 10.6223 2.86327 10.6223C2.28069 10.6223 1.72196 10.8477 1.31001 11.2489C0.898057 11.6501 0.666626 12.1943 0.666626 12.7617C0.666626 13.0426 0.723443 13.3208 0.833835 13.5804C0.944227 13.8399 1.10603 14.0758 1.31001 14.2744L10.6516 23.3724C11.5109 24.2092 12.8989 24.2092 13.7582 23.3724L34.0057 3.65301C34.8869 2.81617 34.8869 1.46435 34.0057 0.62751Z" fill="white"/>
</svg>
