<svg width="30" height="32" viewBox="0 0 30 32" fill="none" xmlns="http://www.w3.org/2000/svg">
<path d="M20.6667 31.5834L15 25.9167L16.9834 23.8625L19.25 26.1292V23.0834H10.75C9.97087 23.0834 9.3041 22.8062 8.74971 22.2518C8.19532 21.6974 7.91765 21.0301 7.91671 20.25V11.75H2.25004C1.46764 11.75 0.833374 11.1158 0.833374 10.3334C0.833374 9.55095 1.46764 8.91669 2.25004 8.91669H7.91671V5.87085L5.65004 8.13752L3.66671 6.08335L9.33337 0.416687L15 6.08335L13.0167 8.13752L10.75 5.87085V20.25H27.75C28.5324 20.25 29.1667 20.8843 29.1667 21.6667C29.1667 22.4491 28.5324 23.0834 27.75 23.0834H22.0834V26.1292L24.35 23.8625L26.3334 25.9167L20.6667 31.5834ZM20.6667 17.4167C19.8843 17.4167 19.25 16.7824 19.25 16V11.75H15C14.2176 11.75 13.5834 11.1158 13.5834 10.3334C13.5834 9.55095 14.2176 8.91669 15 8.91669H19.25C20.0292 8.91669 20.6965 9.19435 21.2518 9.74969C21.8071 10.305 22.0843 10.9718 22.0834 11.75V16C22.0834 16.7824 21.4491 17.4167 20.6667 17.4167Z" fill="white"/>
</svg>
