<svg width="29" height="28" viewBox="0 0 29 28" fill="none" xmlns="http://www.w3.org/2000/svg">
<path d="M6.79163 0C3.41413 0 0.666626 2.7475 0.666626 6.125C0.666626 9.5025 3.41413 12.25 6.79163 12.25C10.1691 12.25 12.9166 9.5025 12.9166 6.125C12.9166 2.7475 10.1691 0 6.79163 0ZM6.79163 8.75C5.33913 8.75 4.16663 7.5775 4.16663 6.125C4.16663 4.6725 5.33913 3.5 6.79163 3.5C8.24413 3.5 9.41663 4.6725 9.41663 6.125C9.41663 7.5775 8.24413 8.75 6.79163 8.75ZM22.5416 15.75C19.1641 15.75 16.4166 18.4975 16.4166 21.875C16.4166 25.2525 19.1641 28 22.5416 28C25.9191 28 28.6666 25.2525 28.6666 21.875C28.6666 18.4975 25.9191 15.75 22.5416 15.75ZM22.5416 24.5C21.0891 24.5 19.9166 23.3275 19.9166 21.875C19.9166 20.4225 21.0891 19.25 22.5416 19.25C23.9941 19.25 25.1666 20.4225 25.1666 21.875C25.1666 23.3275 23.9941 24.5 22.5416 24.5ZM27.4241 1.2425C28.1066 1.925 28.1066 3.0275 27.4241 3.71L4.37663 26.7575C4.21461 26.9195 4.02226 27.048 3.81058 27.1357C3.59889 27.2234 3.372 27.2685 3.14288 27.2685C2.91375 27.2685 2.68686 27.2234 2.47518 27.1357C2.26349 27.048 2.07114 26.9195 1.90913 26.7575C1.74711 26.5955 1.61859 26.4031 1.5309 26.1915C1.44322 25.9798 1.39809 25.7529 1.39809 25.5237C1.39809 25.2946 1.44322 25.0677 1.5309 24.856C1.61859 24.6444 1.74711 24.452 1.90913 24.29L24.9566 1.2425C25.1185 1.08027 25.3108 0.951561 25.5225 0.863743C25.7342 0.775926 25.9612 0.730723 26.1904 0.730723C26.4196 0.730723 26.6465 0.775926 26.8582 0.863743C27.0699 0.951561 27.2622 1.08027 27.4241 1.2425Z" fill="white"/>
</svg>
