<svg width="34" height="33" viewBox="0 0 34 33" fill="none" xmlns="http://www.w3.org/2000/svg">
<path d="M14.0834 5.5H19.5834C24.7685 5.5 27.3618 5.5 28.9719 7.1115C30.1324 8.27062 30.4569 9.93988 30.5476 12.7188H3.11914C3.20989 9.93988 3.53439 8.27062 4.69489 7.1115C6.30502 5.5 8.89827 5.5 14.0834 5.5Z" fill="white"/>
<path fill-rule="evenodd" clip-rule="evenodd" d="M30.5834 17.6247L30.021 17.0624C29.7337 16.7751 29.3927 16.5472 29.0173 16.3917C28.642 16.2362 28.2397 16.1562 27.8334 16.1562C27.4271 16.1562 27.0248 16.2362 26.6494 16.3917C26.2741 16.5472 25.933 16.7751 25.6458 17.0624L24.5444 18.1638C24.2894 17.4855 23.8045 16.9182 23.1742 16.5607C22.5439 16.2033 21.8082 16.0783 21.0952 16.2075C20.3822 16.3368 19.7371 16.7121 19.2724 17.268C18.8077 17.824 18.5528 18.5254 18.5521 19.25V21.6755C17.9732 21.7402 17.4243 21.9671 16.9686 22.3301C16.5129 22.693 16.1689 23.1772 15.9762 23.727C15.7836 24.2768 15.7501 24.8698 15.8796 25.4378C16.0091 26.0058 16.2963 26.5257 16.7083 26.9376L17.2706 27.5H14.0834C8.89825 27.5 6.305 27.5 4.69487 25.8885C3.08337 24.2784 3.08337 21.6851 3.08337 16.5C3.08337 15.8922 3.08337 15.3202 3.08612 14.7812H30.5806C30.5834 15.3202 30.5834 15.8922 30.5834 16.5V17.6247ZM8.58337 20.9688C8.30987 20.9688 8.04757 21.0774 7.85417 21.2708C7.66077 21.4642 7.55212 21.7265 7.55212 22C7.55212 22.2735 7.66077 22.5358 7.85417 22.7292C8.04757 22.9226 8.30987 23.0312 8.58337 23.0312H14.0834C14.3569 23.0312 14.6192 22.9226 14.8126 22.7292C15.006 22.5358 15.1146 22.2735 15.1146 22C15.1146 21.7265 15.006 21.4642 14.8126 21.2708C14.6192 21.0774 14.3569 20.9688 14.0834 20.9688H8.58337Z" fill="white"/>
<path fill-rule="evenodd" clip-rule="evenodd" d="M21.6459 18.2188C21.9194 18.2187 22.1817 18.3274 22.3751 18.5208C22.5685 18.7142 22.6772 18.9765 22.6772 19.25V25.0113L23.6672 24.0212C23.7616 23.9199 23.8754 23.8387 24.0019 23.7823C24.1284 23.7259 24.265 23.6956 24.4034 23.6932C24.5419 23.6907 24.6794 23.7162 24.8078 23.7681C24.9363 23.8199 25.0529 23.8971 25.1508 23.9951C25.2488 24.093 25.326 24.2096 25.3778 24.3381C25.4297 24.4665 25.4552 24.604 25.4527 24.7425C25.4503 24.8809 25.42 25.0175 25.3636 25.144C25.3072 25.2705 25.226 25.3843 25.1247 25.4788L22.3747 28.2288C22.1813 28.4219 21.9192 28.5303 21.6459 28.5303C21.3726 28.5303 21.1105 28.4219 20.9172 28.2288L18.1672 25.4788C18.0658 25.3843 17.9846 25.2705 17.9282 25.144C17.8718 25.0175 17.8415 24.8809 17.8391 24.7425C17.8366 24.604 17.8621 24.4665 17.914 24.3381C17.9659 24.2096 18.043 24.093 18.141 23.9951C18.2389 23.8971 18.3555 23.8199 18.484 23.7681C18.6124 23.7162 18.7499 23.6907 18.8884 23.6932C19.0268 23.6956 19.1634 23.7259 19.2899 23.7823C19.4164 23.8387 19.5302 23.9199 19.6247 24.0212L20.6147 25.0113V19.25C20.6147 18.9765 20.7233 18.7142 20.9167 18.5208C21.1101 18.3274 21.3724 18.2188 21.6459 18.2188ZM27.1047 18.5213C27.298 18.3281 27.5601 18.2197 27.8334 18.2197C28.1067 18.2197 28.3688 18.3281 28.5622 18.5213L31.3122 21.2713C31.4135 21.3657 31.4947 21.4795 31.5511 21.606C31.6075 21.7325 31.6378 21.8691 31.6402 22.0075C31.6427 22.146 31.6172 22.2835 31.5653 22.4119C31.5135 22.5404 31.4363 22.657 31.3383 22.7549C31.2404 22.8529 31.1238 22.9301 30.9953 22.9819C30.8669 23.0338 30.7294 23.0593 30.5909 23.0568C30.4525 23.0544 30.3159 23.0241 30.1894 22.9677C30.0629 22.9113 29.9491 22.8301 29.8547 22.7288L28.8647 21.7388V27.5C28.8647 27.7735 28.756 28.0358 28.5626 28.2292C28.3692 28.4226 28.1069 28.5312 27.8334 28.5312C27.5599 28.5312 27.2976 28.4226 27.1042 28.2292C26.9108 28.0358 26.8022 27.7735 26.8022 27.5V21.7388L25.8122 22.7288C25.7177 22.8301 25.6039 22.9113 25.4774 22.9677C25.3509 23.0241 25.2143 23.0544 25.0759 23.0568C24.9374 23.0593 24.7999 23.0338 24.6715 22.9819C24.543 22.9301 24.4264 22.8529 24.3285 22.7549C24.2305 22.657 24.1534 22.5404 24.1015 22.4119C24.0496 22.2835 24.0241 22.146 24.0266 22.0075C24.029 21.8691 24.0593 21.7325 24.1157 21.606C24.1721 21.4795 24.2533 21.3657 24.3547 21.2713L27.1047 18.5213Z" fill="white"/>
</svg>
