<svg width="17" height="15" viewBox="0 0 17 15" fill="none" xmlns="http://www.w3.org/2000/svg">
<path d="M0.666626 6.95019L0.666626 8.95019L12.6666 8.9502L12.6666 10.9502L14.6666 10.9502L14.6666 8.9502L16.6666 8.9502L16.6666 6.9502L14.6666 6.9502L14.6666 4.9502L12.6666 4.9502L12.6666 6.9502L0.666626 6.95019ZM10.6666 2.9502L12.6666 2.9502L12.6666 4.9502L10.6666 4.9502L10.6666 2.9502ZM10.6666 2.9502L8.66663 2.95019L8.66663 0.950195L10.6666 0.950195L10.6666 2.9502ZM10.6666 12.9502L12.6666 12.9502L12.6666 10.9502L10.6666 10.9502L10.6666 12.9502ZM10.6666 12.9502L8.66663 12.9502L8.66663 14.9502L10.6666 14.9502L10.6666 12.9502Z" fill="black"/>
</svg>
