<svg width="415" height="365" viewBox="0 0 415 365" fill="none" xmlns="http://www.w3.org/2000/svg">
<circle cx="108" cy="108" r="108" fill="#D9D9D9"/>
<circle cx="108" cy="108" r="108" fill="url(#paint0_linear_104_1040)"/>
<path d="M292 135V87C292 49.9969 262.003 20 225 20V20C187.997 20 158 49.9969 158 87V135" stroke="url(#paint1_linear_104_1040)" stroke-width="25"/>
<mask id="mask0_104_1040" style="mask-type:alpha" maskUnits="userSpaceOnUse" x="112" y="89" width="234" height="234">
<circle cx="229" cy="206" r="117" fill="#D9D9D9"/>
</mask>
<g mask="url(#mask0_104_1040)">
<path d="M128.543 109.474L150.924 96.4016L299.85 72.1402C378.682 59.2977 438.385 141.905 401.456 212.726L329.355 351L131.114 340.345C48.9394 335.928 9.24953 237.63 65.3194 177.394L128.543 109.474Z" fill="url(#paint2_linear_104_1040)"/>
<path d="M152.111 110.738L226.547 108.744C282.195 107.254 327.678 152.803 326.106 208.449L323.735 292.365L245.816 297.447C185.48 301.382 136.288 249.758 143.126 189.683L152.111 110.738Z" fill="#E2E2E2"/>
</g>
<circle cx="230" cy="183" r="23" fill="#F3F4F9"/>
<path d="M223.773 186.325C225.527 180.712 233.473 180.712 235.227 186.325L252.613 241.96C253.821 245.824 250.934 249.75 246.887 249.75H212.113C208.066 249.75 205.179 245.824 206.387 241.96L223.773 186.325Z" fill="#F3F4F9"/>
<path d="M345.75 206L414.5 230.062V285.475C414.5 313.848 397.086 333.682 380.84 345.996C371.04 353.362 360.286 359.364 348.871 363.836L348.273 364.063L348.101 364.125L348.053 364.139L348.033 364.146C348.026 364.146 348.019 364.146 345.75 357.662L343.474 364.152L343.447 364.139L343.399 364.125L343.227 364.056L342.629 363.836C339.386 362.582 336.198 361.192 333.073 359.67C325.183 355.837 317.678 351.258 310.66 345.996C294.421 333.682 277 313.848 277 285.475V230.062L345.75 206ZM345.75 357.662L343.474 364.152L345.75 364.95L348.026 364.152L345.75 357.662ZM345.75 350.292L345.812 350.265C355.325 346.333 364.303 341.217 372.535 335.037C387.234 323.906 400.75 307.633 400.75 285.475V239.825L345.75 220.575L290.75 239.825V285.475C290.75 307.633 304.266 323.892 318.965 335.044C327.215 341.235 336.215 346.359 345.75 350.292ZM387.495 260.333L338.882 308.946L309.711 279.783L319.439 270.054L338.875 289.504L377.767 250.612L387.495 260.333Z" fill="white"/>
<path d="M345.75 206L414.5 230.062V285.475C414.5 313.848 397.086 333.682 380.84 345.996C371.04 353.362 360.286 359.364 348.871 363.836L348.273 364.063L348.101 364.125L348.053 364.139L348.033 364.146C348.026 364.146 348.019 364.146 345.75 357.662L343.474 364.152L343.447 364.139L343.399 364.125L343.227 364.056L342.629 363.836C339.386 362.582 336.198 361.192 333.073 359.67C325.183 355.837 317.678 351.258 310.66 345.996C294.421 333.682 277 313.848 277 285.475V230.062L345.75 206ZM345.75 357.662L343.474 364.152L345.75 364.95L348.026 364.152L345.75 357.662ZM345.75 350.292L345.812 350.265C355.325 346.333 364.303 341.217 372.535 335.037C387.234 323.906 400.75 307.633 400.75 285.475V239.825L345.75 220.575L290.75 239.825V285.475C290.75 307.633 304.266 323.892 318.965 335.044C327.215 341.235 336.215 346.359 345.75 350.292ZM387.495 260.333L338.882 308.946L309.711 279.783L319.439 270.054L338.875 289.504L377.767 250.612L387.495 260.333Z" fill="url(#paint3_linear_104_1040)"/>
<path fill-rule="evenodd" clip-rule="evenodd" d="M345.75 350.292L345.812 350.265C355.325 346.333 364.303 341.217 372.535 335.037C387.234 323.906 400.75 307.633 400.75 285.475V239.825L345.75 220.575L290.75 239.825V285.475C290.75 307.633 304.266 323.892 318.965 335.044C327.215 341.235 336.215 346.359 345.75 350.292ZM338.882 308.946L387.495 260.333L377.767 250.612L338.875 289.504L319.439 270.054L309.711 279.783L338.882 308.946Z" fill="white"/>
<path fill-rule="evenodd" clip-rule="evenodd" d="M345.75 350.292L345.812 350.265C355.325 346.333 364.303 341.217 372.535 335.037C387.234 323.906 400.75 307.633 400.75 285.475V239.825L345.75 220.575L290.75 239.825V285.475C290.75 307.633 304.266 323.892 318.965 335.044C327.215 341.235 336.215 346.359 345.75 350.292ZM338.882 308.946L387.495 260.333L377.767 250.612L338.875 289.504L319.439 270.054L309.711 279.783L338.882 308.946Z" fill="url(#paint4_linear_104_1040)"/>
<circle cx="346" cy="285" r="37" fill="white"/>
<path d="M369.681 274.121L342.104 301.615L325.556 285.121L331.075 279.619L342.1 290.619L364.162 268.622L369.681 274.121Z" fill="white"/>
<path d="M369.681 274.121L342.104 301.615L325.556 285.121L331.075 279.619L342.1 290.619L364.162 268.622L369.681 274.121Z" fill="url(#paint5_linear_104_1040)"/>
<path fill-rule="evenodd" clip-rule="evenodd" d="M342.104 301.615L369.681 274.121L364.162 268.622L342.1 290.619L331.075 279.619L325.556 285.121L342.104 301.615Z" fill="white"/>
<path fill-rule="evenodd" clip-rule="evenodd" d="M342.104 301.615L369.681 274.121L364.162 268.622L342.1 290.619L331.075 279.619L325.556 285.121L342.104 301.615Z" fill="url(#paint6_linear_104_1040)"/>
<defs>
<linearGradient id="paint0_linear_104_1040" x1="1.08609e-07" y1="108.655" x2="215.663" y2="108.655" gradientUnits="userSpaceOnUse">
<stop stop-color="#468DFE"/>
<stop offset="1" stop-color="#7CD6FD"/>
</linearGradient>
<linearGradient id="paint1_linear_104_1040" x1="225" y1="20" x2="225" y2="135" gradientUnits="userSpaceOnUse">
<stop stop-color="#D6D5D5"/>
<stop offset="1" stop-color="#C1C6C8"/>
</linearGradient>
<linearGradient id="paint2_linear_104_1040" x1="207" y1="85" x2="207.5" y2="351" gradientUnits="userSpaceOnUse">
<stop stop-color="#D0D2D6"/>
<stop offset="1" stop-color="#D5DADB"/>
</linearGradient>
<linearGradient id="paint3_linear_104_1040" x1="277" y1="285.957" x2="414.285" y2="285.957" gradientUnits="userSpaceOnUse">
<stop stop-color="#468DFE"/>
<stop offset="1" stop-color="#7CD6FD"/>
</linearGradient>
<linearGradient id="paint4_linear_104_1040" x1="277" y1="285.957" x2="414.285" y2="285.957" gradientUnits="userSpaceOnUse">
<stop stop-color="#468DFE"/>
<stop offset="1" stop-color="#7CD6FD"/>
</linearGradient>
<linearGradient id="paint5_linear_104_1040" x1="307" y1="288.613" x2="384.878" y2="288.613" gradientUnits="userSpaceOnUse">
<stop stop-color="#468DFE"/>
<stop offset="1" stop-color="#7CD6FD"/>
</linearGradient>
<linearGradient id="paint6_linear_104_1040" x1="307" y1="288.613" x2="384.878" y2="288.613" gradientUnits="userSpaceOnUse">
<stop stop-color="#468DFE"/>
<stop offset="1" stop-color="#7CD6FD"/>
</linearGradient>
</defs>
</svg>
